<?xml version="1.0" standalone="no"?>
<!DOCTYPE svg PUBLIC "-//W3C//DTD SVG 20010904//EN"
 "http://www.w3.org/TR/2001/REC-SVG-20010904/DTD/svg10.dtd">
<svg version="1.0" xmlns="http://www.w3.org/2000/svg"
 width="1876.000000pt" height="1876.000000pt" viewBox="0 0 1876.000000 1876.000000"
 preserveAspectRatio="xMidYMid meet">
<metadata>
Created by potrace 1.11, written by Peter Selinger 2001-2013
</metadata>
<g transform="translate(0.000000,1876.000000) scale(0.100000,-0.100000)"
fill="#000000" stroke="none">
<path d="M3390 13195 l0 -635 -635 0 -635 0 0 -635 0 -635 -640 0 -640 0 0
-1910 0 -1910 640 0 640 0 0 -635 0 -635 635 0 635 0 0 -640 0 -640 2545 0
2545 0 0 640 0 640 635 0 635 0 0 635 0 635 -1270 0 -1270 0 0 -635 0 -635
-1270 0 -1270 0 0 635 0 635 -637 2 -638 3 -3 1902 -2 1903 637 2 638 3 3 638
2 637 1268 -2 1267 -3 3 -637 2 -638 1270 0 1270 0 0 640 0 640 -635 0 -635 0
0 635 0 635 -2545 0 -2545 0 0 -635z"/>
<path d="M10282 9378 l3 -4453 3818 -3 3817 -2 0 640 0 640 -2545 0 -2545 0 0
3815 0 3815 -1275 0 -1275 0 2 -4452z"/>
<path d="M14540 13310 l0 -520 -337 -2 -338 -3 -3 -522 -2 -523 -335 0 -335 0
0 -2615 0 -2615 2365 0 2365 0 0 525 0 525 -1690 0 -1690 0 0 520 0 520 1355
0 1355 0 0 525 0 525 -1355 0 -1355 0 0 520 0 520 1690 0 1690 0 0 525 0 525
-335 0 -335 0 -2 523 -3 522 -337 3 -338 2 0 520 0 520 -1015 0 -1015 0 0
-520z m1350 -1050 l0 -520 -335 0 -335 0 0 520 0 520 335 0 335 0 0 -520z"/>
<path d="M4090 10045 l0 -105 208 -2 207 -3 3 -622 2 -623 210 0 210 0 0 625
0 625 205 0 205 0 0 105 0 105 -625 0 -625 0 0 -105z"/>
<path d="M5550 9420 l0 -730 210 0 210 0 0 310 0 310 310 0 310 0 0 -310 0
-310 210 0 210 0 0 730 0 730 -210 0 -210 0 0 -310 0 -310 -310 0 -310 0 0
310 0 310 -210 0 -210 0 0 -730z"/>
<path d="M7420 9835 l0 -315 105 0 105 0 0 -105 0 -105 105 0 105 0 0 -310 0
-310 210 0 210 0 0 310 0 310 105 0 105 0 0 105 0 105 105 0 105 0 0 315 0
315 -210 0 -210 0 0 -310 0 -310 -210 0 -210 0 0 310 0 310 -210 0 -210 0 0
-315z"/>
</g>
</svg>
